<svg xmlns="http://www.w3.org/2000/svg" viewBox="0 0 50.54 50.54"><defs><style>.cls-1{fill:#d1d0d1;}</style></defs><g id="Camada_2" data-name="Camada 2"><g id="Camada_1-2" data-name="Camada 1"><path class="cls-1" d="M35.35,0H15.19A15.19,15.19,0,0,0,0,15.19V35.35A15.19,15.19,0,0,0,15.19,50.54H35.35A15.19,15.19,0,0,0,50.54,35.35V15.19A15.19,15.19,0,0,0,35.35,0ZM45.46,35.62a9.85,9.85,0,0,1-9.84,9.84H14.92a9.85,9.85,0,0,1-9.84-9.84V14.92a9.85,9.85,0,0,1,9.84-9.84h20.7a9.85,9.85,0,0,1,9.84,9.84Z"/><path class="cls-1" d="M25.27,12.06A13.21,13.21,0,1,0,38.48,25.27,13.2,13.2,0,0,0,25.27,12.06Zm0,21.32a8.12,8.12,0,1,1,8.11-8.11A8.12,8.12,0,0,1,25.27,33.38Z"/><circle class="cls-1" cx="38.48" cy="12.06" r="3.15"/></g></g></svg>