<svg xmlns="http://www.w3.org/2000/svg" viewBox="0 0 56.36 45.75"><defs><style>.cls-1{fill:#d1d0d1;}</style></defs><g id="Camada_2" data-name="Camada 2"><g id="Camada_1-2" data-name="Camada 1"><path class="cls-1" d="M27.58,13.78a.36.36,0,0,1-.41.37c-2-.29-10.5-1.63-13.89-4A83,83,0,0,1,5.57,4h0L3.77,2.13S1.54,8,2.48,10.44s2.23,5.05,2.75,5.4,2.22,1.88,2.22,1.88A14.82,14.82,0,0,1,4,17a7.26,7.26,0,0,0-1.78-.69s.32,5.06,2.81,7.54a19.53,19.53,0,0,0,6.34,3.86A22.14,22.14,0,0,1,7.94,28c-.66-.11-1.66-.23-1.66-.23A12.83,12.83,0,0,0,8.68,32c1.43,1.37,3.2,3,5.49,3.4a22.45,22.45,0,0,0,2.82.4s-4.48,3.46-8.16,4.14-4.17.94-6,.86l-1.8-.09L0,40.63s6.2,3.68,10,4.28,10.28,1.54,15.76,0A37.91,37.91,0,0,0,37.7,39.43a39.87,39.87,0,0,0,8.91-10.51,46.9,46.9,0,0,0,3.77-12.06c.11-1.77.36-4.28.28-4.71a5.91,5.91,0,0,1-.11-.79,38.88,38.88,0,0,0,3.64-3.17c.69-.86,2.17-2.74,2.17-2.74a37.7,37.7,0,0,1-5,1.47l-1.52.22A13.55,13.55,0,0,0,53.64,3.3,7.84,7.84,0,0,0,54.77.78,38,38,0,0,1,49.5,3.13a17.22,17.22,0,0,1-1.84.39.34.34,0,0,1-.29-.09,12.13,12.13,0,0,0-3.16-2.27C43.05.82,42.41.22,41,.11s-4-.34-5.89.52-4,2-5,3.53a13.27,13.27,0,0,0-2.49,6.77C27.56,11.93,27.57,13.15,27.58,13.78Z"/></g></g></svg>