<svg xmlns="http://www.w3.org/2000/svg" viewBox="0 0 93.31 85.93"><defs><style>.cls-1{fill:#fff;}</style></defs><g id="Camada_2" data-name="Camada 2"><g id="Camada_1-2" data-name="Camada 1"><path class="cls-1" d="M4.29,69.23V7.69h44V53.05l4.29-6.76V3.54A3.53,3.53,0,0,0,49.06,0H3.54A3.53,3.53,0,0,0,0,3.54V77.08a3.54,3.54,0,0,0,3.54,3.54H30.81l.12-.23L38,69.23Zm22,9.6a3.56,3.56,0,1,1,3.56-3.56A3.56,3.56,0,0,1,26.3,78.83Z"/><path class="cls-1" d="M93,83.08,65.65,40a1.85,1.85,0,0,0-3.13,0L35.15,83.08a1.86,1.86,0,0,0,1.57,2.85H91.45A1.86,1.86,0,0,0,93,83.08ZM64.08,79.24a1.82,1.82,0,1,1,1.82-1.82A1.82,1.82,0,0,1,64.08,79.24Zm1.78-5.94a.81.81,0,0,1-.81.78H63.12a.81.81,0,0,1-.81-.78L61.59,56a.81.81,0,0,1,.81-.85h3.37a.81.81,0,0,1,.81.85Z"/></g></g></svg>