<svg xmlns="http://www.w3.org/2000/svg" viewBox="0 0 34.62 33.69"><defs><style>.cls-1{fill:#f6f6f6;}</style></defs><g id="Camada_2" data-name="Camada 2"><g id="Camada_1-2" data-name="Camada 1"><path class="cls-1" d="M17.31,0A17.08,17.08,0,0,0,0,16.85,17.08,17.08,0,0,0,17.31,33.69,17.08,17.08,0,0,0,34.62,16.85,17.08,17.08,0,0,0,17.31,0ZM3.2,16.85a13.42,13.42,0,0,1,2.69-8L25.56,28a14.25,14.25,0,0,1-8.25,2.61A13.92,13.92,0,0,1,3.2,16.85Zm25.17,8.5L8.57,6.08a14.26,14.26,0,0,1,8.74-3,13.91,13.91,0,0,1,14.1,13.73A13.43,13.43,0,0,1,28.37,25.35Z"/><path class="cls-1" d="M21.94,16.46a3.6,3.6,0,0,0,2.33-3.52c0-2.34-1.84-4.25-5.86-4.25H12.66L16,12h1.4c1.16,0,1.88.49,1.88,1.47a1.39,1.39,0,0,1-.55,1.18l5.95,5.79c0-.09,0-.17,0-.26A3.86,3.86,0,0,0,21.94,16.46Z"/><path class="cls-1" d="M17.72,21.71l-.48,0H14.85V18.91l-5-4.83V25h8.54a9.57,9.57,0,0,0,2.39-.3Z"/></g></g></svg>