<svg xmlns="http://www.w3.org/2000/svg" viewBox="0 0 37.8 26.78"><defs><style>.cls-1{fill:#fff;}</style></defs><g id="Camada_2" data-name="Camada 2"><g id="Camada_1-2" data-name="Camada 1"><path class="cls-1" d="M6.74,8.31a4.62,4.62,0,0,0,0,9.24,4.14,4.14,0,0,0,.87-.11,11.17,11.17,0,0,1,3-7A4.55,4.55,0,0,0,6.74,8.31Z"/><circle class="cls-1" cx="18.86" cy="6.7" r="6.7" transform="translate(0.78 15.3) rotate(-45)"/><path class="cls-1" d="M18.86,15.27a8.56,8.56,0,0,1-7.14-3.83A9.71,9.71,0,0,0,9.08,18.1v8.68H28.63V18.1A9.71,9.71,0,0,0,26,11.44,8.53,8.53,0,0,1,18.86,15.27Z"/><path class="cls-1" d="M1.36,16.75a6.66,6.66,0,0,0-1.36,4v4.29a1.7,1.7,0,0,0,1.7,1.7H7.58V19.11a6.08,6.08,0,0,1-1.22.12A6.29,6.29,0,0,1,1.36,16.75Z"/><path class="cls-1" d="M35.68,12.94a4.62,4.62,0,0,0-4.62-4.62,4.57,4.57,0,0,0-3.86,2.13,11.17,11.17,0,0,1,3,7,4.14,4.14,0,0,0,.87.11A4.62,4.62,0,0,0,35.68,12.94Z"/><path class="cls-1" d="M36.44,16.76a6.29,6.29,0,0,1-5,2.48,6.16,6.16,0,0,1-1.22-.12v7.66H36.1a1.7,1.7,0,0,0,1.7-1.7V20.79A6.63,6.63,0,0,0,36.44,16.76Z"/></g></g></svg>