<svg xmlns="http://www.w3.org/2000/svg" viewBox="0 0 36.14 36.14"><defs><style>.cls-1{fill:#fff;}</style></defs><g id="Camada_2" data-name="Camada 2"><g id="Camada_1-2" data-name="Camada 1"><path class="cls-1" d="M36.11,18.61c0-.18,0-.36,0-.54A18.07,18.07,0,0,0,0,18.07c0,.18,0,.36,0,.54a1.81,1.81,0,0,0,0,.23,2.88,2.88,0,0,0,.07.59,18,18,0,0,0,36,0,2.78,2.78,0,0,0,.07-.57A1.81,1.81,0,0,0,36.11,18.61ZM2.63,18.2a17.63,17.63,0,0,1,6.18-2.75c-.06.85-.09,1.73-.09,2.62,0,1.17,0,2.3.14,3.4a17.8,17.8,0,0,1-6.21-2.75C2.64,18.55,2.63,18.38,2.63,18.2Zm8.91-.63c0-.93,0-1.84.1-2.73a38.8,38.8,0,0,1,5-.53V22.6a40.47,40.47,0,0,1-4.87-.5A38.75,38.75,0,0,1,11.54,17.57ZM19.47,2.69c.54.05,1.07.12,1.59.22a21.81,21.81,0,0,1,3.13,9,40.85,40.85,0,0,0-4.72-.41Zm-2.8,0v8.78a40.68,40.68,0,0,0-4.71.41,21.67,21.67,0,0,1,3.12-9C15.6,2.81,16.13,2.74,16.67,2.69Zm0,22.75v8L16,33.37c-1.63-1.64-3-4.59-3.73-8.3A40.35,40.35,0,0,0,16.67,25.44Zm2.8,8v-8a40.14,40.14,0,0,0,4.39-.37c-.77,3.71-2.1,6.66-3.73,8.3Zm0-10.82V14.28a40.09,40.09,0,0,1,5,.39c.06.94.1,1.91.1,2.9a39.15,39.15,0,0,1-.28,4.69A41.17,41.17,0,0,1,19.47,22.63Zm7.84-7.45a21.43,21.43,0,0,1,6.18,2.31c0,.19,0,.38,0,.58,0,.46,0,.92-.07,1.37a21.7,21.7,0,0,1-6.2,2.3c.11-1.18.18-2.41.18-3.67C27.43,17.08,27.38,16.12,27.31,15.18Zm5.85-.41A21,21,0,0,0,27,12.41,23,23,0,0,0,24.23,3.9,15.47,15.47,0,0,1,33.16,14.77ZM11.91,3.9a23,23,0,0,0-2.78,8.51A21.06,21.06,0,0,0,3,14.77,15.5,15.5,0,0,1,11.91,3.9ZM3.21,22.28a22,22,0,0,0,6.05,2.25,22.07,22.07,0,0,0,2.65,7.71A15.47,15.47,0,0,1,3.21,22.28Zm21,10a22.07,22.07,0,0,0,2.65-7.71,22,22,0,0,0,6.05-2.25A15.47,15.47,0,0,1,24.23,32.24Z"/></g></g></svg>