<svg xmlns="http://www.w3.org/2000/svg" viewBox="0 0 36 33.46"><defs><style>.cls-1{fill:#fff;}</style></defs><g id="Camada_2" data-name="Camada 2"><g id="Camada_1-2" data-name="Camada 1"><path class="cls-1" d="M22.43,26.16a3.2,3.2,0,1,1,0-6.39h2.26V1.33A1.32,1.32,0,0,0,23.36,0h-22A1.32,1.32,0,0,0,0,1.33V28.9a1.32,1.32,0,0,0,1.33,1.33h22a1.32,1.32,0,0,0,1.33-1.33V26.16ZM16.58,9.21V1.52A.37.37,0,0,1,17,1.15l6.51,8.06a.37.37,0,0,1-.37.37H17A.37.37,0,0,1,16.58,9.21Z"/><path class="cls-1" d="M28.12,14.08h0V4.56a1.34,1.34,0,0,0-1.33-1.33h-1.1v12A3.19,3.19,0,0,1,28.12,14.08Z"/><path class="cls-1" d="M28.12,31.85a3.18,3.18,0,0,1-2.8-1.69,2.35,2.35,0,0,1-2,1.07H3.43v.9a1.32,1.32,0,0,0,1.32,1.33h22a1.33,1.33,0,0,0,1.33-1.33v-.28Z"/><path class="cls-1" d="M33.81,20.77h-3.5v-3.5a2.2,2.2,0,0,0-4.39,0v3.5H22.43a2.2,2.2,0,1,0,0,4.39h3.49v3.49a2.2,2.2,0,1,0,4.39,0V25.16h3.5a2.2,2.2,0,0,0,0-4.39Z"/></g></g></svg>