<svg xmlns="http://www.w3.org/2000/svg" viewBox="0 0 33.35 30.23"><defs><style>.cls-1{fill:#fff;}</style></defs><g id="Camada_2" data-name="Camada 2"><g id="Camada_1-2" data-name="Camada 1"><path class="cls-1" d="M22.27,25.88V23.39h-2.5a3.2,3.2,0,0,1,0-6.39h2.5V14.5a3.19,3.19,0,0,1,2.42-3.09V1.33A1.32,1.32,0,0,0,23.36,0h-22A1.32,1.32,0,0,0,0,1.33V28.9a1.32,1.32,0,0,0,1.33,1.33h22A1.33,1.33,0,0,0,24.68,29,3.2,3.2,0,0,1,22.27,25.88ZM16.58,1.52A.37.37,0,0,1,17,1.15l6.51,8.06a.37.37,0,0,1-.37.37H17a.37.37,0,0,1-.37-.37Z"/><path class="cls-1" d="M31.15,18H27.66V14.5a2.2,2.2,0,0,0-4.39,0V18h-3.5a2.2,2.2,0,0,0,0,4.39h3.5v3.49a2.2,2.2,0,1,0,4.39,0V22.39h3.49a2.2,2.2,0,1,0,0-4.39Z"/></g></g></svg>