<svg xmlns="http://www.w3.org/2000/svg" viewBox="0 0 37.06 24.88"><defs><style>.cls-1{fill:#fff;}</style></defs><g id="Camada_2" data-name="Camada 2"><g id="Camada_1-2" data-name="Camada 1"><path class="cls-1" d="M28,21.44a1.19,1.19,0,0,1-.48-1h0a1.18,1.18,0,0,1,.46-.94.63.63,0,0,0,.23-.73.58.58,0,0,0-.05-.14.66.66,0,0,0-.7-.36,1.19,1.19,0,0,1-1-.33h0a1.19,1.19,0,0,1-.33-1,.66.66,0,0,0-.35-.7l-.22-.09a.65.65,0,0,0-.73.23,1.18,1.18,0,0,1-.92.44,1.15,1.15,0,0,1-.92-.44.65.65,0,0,0-.73-.23l-.21.09a.64.64,0,0,0-.36.66,1.18,1.18,0,0,1-.34,1,1.15,1.15,0,0,1-1,.34.61.61,0,0,0-.66.35l-.09.19a.65.65,0,0,0,.24.74,1.18,1.18,0,0,1,.46.94h0a1.19,1.19,0,0,1-.48,1,.63.63,0,0,0-.25.72l.09.23a.65.65,0,0,0,.7.37,1.2,1.2,0,0,1,1,.34,1.17,1.17,0,0,1,.34,1,.64.64,0,0,0,.35.69l.16.06a.65.65,0,0,0,.75-.25,1.19,1.19,0,0,1,1.92,0,.65.65,0,0,0,.75.25l.16-.06a.64.64,0,0,0,.35-.71,1.18,1.18,0,0,1,.33-1h0a1.17,1.17,0,0,1,1-.33.63.63,0,0,0,.69-.36l.08-.18A.64.64,0,0,0,28,21.44ZM26.13,21a2.22,2.22,0,0,1-1.68,1.69A2.27,2.27,0,1,1,26.13,21Z"/><path class="cls-1" d="M23.93,19.34a1.33,1.33,0,0,0-.28,0,1.12,1.12,0,0,0-.84.84,1.15,1.15,0,0,0,.75,1.36,9.71,9.71,0,0,0,1.49-1.31,1.41,1.41,0,0,0-.22-.49A1.13,1.13,0,0,0,23.93,19.34Z"/><path class="cls-1" d="M30,15.21a1.11,1.11,0,0,1,.5.12l4.88,2.29a1.19,1.19,0,0,0,1.69-1.08,1.17,1.17,0,0,0-.68-1.07L30.49,12.7a1.25,1.25,0,0,0-.5-.11H27.76a10.4,10.4,0,0,0-.26-1.87H30a1.25,1.25,0,0,1,.5.11l4.88,2.29a1.19,1.19,0,0,0,1-2.15L30.49,8.2a1.25,1.25,0,0,0-.5-.11h-3.5a9,9,0,0,0-1.1-1.61,4.32,4.32,0,0,0,.13-1c0-3-3.07-5.46-6.86-5.46S11.8,2.44,11.8,5.46a4.47,4.47,0,0,0,.13,1,8.82,8.82,0,0,0-.88,1.2h-4a1.12,1.12,0,0,0-.51.11L.68,10.57a1.19,1.19,0,0,0,1,2.15l4.88-2.29a1.13,1.13,0,0,1,.51-.12H9.92a10.46,10.46,0,0,0-.34,1.87H7.08a1.13,1.13,0,0,0-.51.12L.68,15.06A1.21,1.21,0,0,0,0,16.14a1.18,1.18,0,0,0,1.69,1.07l4.88-2.29a1.26,1.26,0,0,1,.51-.11H9.66a10.85,10.85,0,0,0,.28,1.31H7.08a1.13,1.13,0,0,0-.51.12L.68,19A1.21,1.21,0,0,0,0,20.08a1.19,1.19,0,0,0,1.69,1.07l4.88-2.29a1.26,1.26,0,0,1,.51-.11h4a8.94,8.94,0,0,0,7.57,4.39h.18a3,3,0,0,1-.18-.3l-.12-.28a1.75,1.75,0,0,1,.63-2v-.12a1.75,1.75,0,0,1-.58-2,2.72,2.72,0,0,1,.11-.25,1.73,1.73,0,0,1,1.58-1h.25l.08-.08a1.72,1.72,0,0,1,1-1.81l.26-.11a1.81,1.81,0,0,1,.6-.11,1.79,1.79,0,0,1,1.39.68H24a1.8,1.8,0,0,1,1.39-.68,1.83,1.83,0,0,1,.61.11l.26.11a1.75,1.75,0,0,1,1,1.87l.07.08h.26a1.74,1.74,0,0,1,1.61,1l.08.17a1.63,1.63,0,0,1,.11.75H30a1.11,1.11,0,0,1,.5.12l4.88,2.29a1.19,1.19,0,0,0,1.69-1.08,1.17,1.17,0,0,0-.68-1.07l-5.89-2.77a1.25,1.25,0,0,0-.5-.11H27.25a11.11,11.11,0,0,0,.35-1.32Z"/></g></g></svg>