<svg xmlns="http://www.w3.org/2000/svg" viewBox="0 0 30.02 33.46"><defs><style>.cls-1{fill:#f6f6f6;}</style></defs><g id="Camada_2" data-name="Camada 2"><g id="Camada_1-2" data-name="Camada 1"><path class="cls-1" d="M9,23.27a2.65,2.65,0,0,1-.26-3.18L8,19.36l-7,7a.51.51,0,0,0,0,.72l2.63,2.63a.51.51,0,0,0,.72,0l5.5-5.5Z"/><path class="cls-1" d="M29.87,13.46l-3.19-3.19a.5.5,0,0,1,0-.71l1.24-1.24a.53.53,0,0,0,0-.72L23.11,2.79a.51.51,0,0,0-.72,0L21.15,4a.51.51,0,0,1-.72,0L16.55.15a.5.5,0,0,0-.71,0L10.28,5.7a.51.51,0,0,0,0,.72L13.7,9.84a.53.53,0,0,0,.37.15l2.5-.05.42.43-4.48,4.48.73.72a2.7,2.7,0,0,1,1.42-.41,2.66,2.66,0,0,1,1.76.67l1,.85L20,14.07a.53.53,0,0,1,.72,0L25,18.35a.51.51,0,0,0,.72,0l4.17-4.17A.51.51,0,0,0,29.87,13.46Z"/><path class="cls-1" d="M14.17,17.32l-.48.48a.71.71,0,0,1-1,0L4.22,9.32A.75.75,0,0,1,4,8.9l-.09-.75a.67.67,0,0,0-.39-.55L2,6.89A.7.7,0,0,0,1.24,7l-1,1a.7.7,0,0,0-.11.83l.82,1.49a.73.73,0,0,0,.5.35l.63.1a.72.72,0,0,1,.39.19L11,19.55a.71.71,0,0,1,0,1l-.48.48a.7.7,0,0,0,0,.95l10,11.26a.7.7,0,0,0,1,0l5-5a.7.7,0,0,0,0-1l-11.26-10A.7.7,0,0,0,14.17,17.32Z"/></g></g></svg>