<svg xmlns="http://www.w3.org/2000/svg" viewBox="0 0 620.68 155.71"><defs><style>.cls-1,.cls-3,.cls-4{fill:#fff;}.cls-2{fill:none;stroke-linejoin:round;stroke-width:6px;}.cls-2,.cls-4{stroke:#fff;}.cls-3{font-size:41.32px;font-family:Georgia;}.cls-4{stroke-linecap:round;stroke-miterlimit:10;stroke-width:4px;}</style></defs><g id="Camada_2" data-name="Camada 2"><g id="Camada_1-2" data-name="Camada 1"><path class="cls-1" d="M162.33,45.86a8.75,8.75,0,0,0,5.86-2.28,9.35,9.35,0,0,0,3.22-5.49,6.42,6.42,0,0,0-1.25-5.49,6.19,6.19,0,0,0-5.08-2.27,9,9,0,0,0-5.92,2.27,9.24,9.24,0,0,0-3.28,5.49,6.35,6.35,0,0,0,6.45,7.77Z"/><path class="cls-1" d="M348.38,64.43a2.61,2.61,0,0,0-1.54-4.72H313.18a2.61,2.61,0,0,1-2.48-1.8l-10.4-32a2.61,2.61,0,0,0-5,0L279.81,73.69a6.81,6.81,0,0,1-2.69.06,3,3,0,0,1-2.27-2.81,4.53,4.53,0,0,1,.3-2.21,15.34,15.34,0,0,1,1.07-2.09l1.44-2.33A16,16,0,0,0,279,61.38a9,9,0,0,0,.36-2.8,6.28,6.28,0,0,0-1.14-3.47,8.52,8.52,0,0,0-3.76-2.92,18.29,18.29,0,0,0-7.4-1.2,18,18,0,0,0-7.65,1.79A21.82,21.82,0,0,0,253.23,57a7,7,0,0,0-1.31-3.1,6.34,6.34,0,0,0-2.21-1.79,10.13,10.13,0,0,0-2.75-.84A18.47,18.47,0,0,0,244,51a25,25,0,0,0-3.76.3,15.77,15.77,0,0,0-3.7,1,10,10,0,0,0-3,1.85,4.5,4.5,0,0,0-1.49,2.68,1.75,1.75,0,0,0,.3,1.62,1.81,1.81,0,0,0,1.49.66,2.62,2.62,0,0,0,1.73-.66,3,3,0,0,0,1-1.62v-.71c1.27,0,1.71,1,1.31,3.1q-1.78,10.27-3.22,18.52-.6,3.47-1.2,6.81t-1.07,6q-.48,2.63-1.08,6a14.21,14.21,0,0,0,0,6,23.69,23.69,0,0,1-2.19,2.42,11.12,11.12,0,0,1-7.65,2.93Q223.73,95.78,225.4,86c.48-2.78.95-5.53,1.43-8.24s.92-5.16,1.31-7.35.72-4,1-5.43.4-2.31.48-2.63a26.45,26.45,0,0,1,1.08-4.66,13.57,13.57,0,0,1,1.19-2.63A3.91,3.91,0,0,1,233,53.62a11.11,11.11,0,0,0-3.76-2,11.63,11.63,0,0,0-4.54-.54,12.3,12.3,0,0,0-4.6,1.32A10.36,10.36,0,0,0,216.2,56a12.48,12.48,0,0,0-2.92-3.58A6.43,6.43,0,0,0,209,51a19,19,0,0,0-8.95,2.27,31.22,31.22,0,0,0-8,6.09,40.27,40.27,0,0,0-6.39,9,48.35,48.35,0,0,0-4.18,11,43.65,43.65,0,0,0-1.18,8.36h-3.71a23.4,23.4,0,0,1-1.56,3.94,14.5,14.5,0,0,1-2.27,3.35A12.85,12.85,0,0,1,170,97.4a6,6,0,0,1-3,.89,9.6,9.6,0,0,1-2.21-.24A3.18,3.18,0,0,1,163.05,97a4.49,4.49,0,0,1-1-2.21,12.38,12.38,0,0,1,.12-3.77c0-.15.14-1,.42-2.44l1-5.38q.58-3.17,1.19-6.69T166,69.86q.53-3.1,1-5.19c.28-1.4.42-2.17.42-2.33a27.53,27.53,0,0,1,1.07-4.66,14.14,14.14,0,0,1,1.2-2.63,3.73,3.73,0,0,1,1.19-1.43,12.17,12.17,0,0,0-4.89-2.39,10.76,10.76,0,0,0-5.74.12,11.46,11.46,0,0,0-5.25,3.46,14.61,14.61,0,0,0-3.23,7.53c0,.08-.08.52-.24,1.31s-.34,1.79-.53,3-.44,2.57-.72,4.12-.58,3.13-.9,4.72c-.69,3.69-1.42,7.8-2.19,12.3h-.76a23.4,23.4,0,0,1-1.56,3.94,14.5,14.5,0,0,1-2.27,3.35,12.85,12.85,0,0,1-2.8,2.33,6,6,0,0,1-3,.89,9.84,9.84,0,0,1-2.15-.24A3.23,3.23,0,0,1,132.74,97a4.49,4.49,0,0,1-1-2.21A12.38,12.38,0,0,1,131.9,91l9.68-54.7A15.34,15.34,0,0,0,141.7,30a6.59,6.59,0,0,0-5.26-5.26,17.87,17.87,0,0,0-3.7-.42,26.09,26.09,0,0,0-3.82.3,15.82,15.82,0,0,0-3.77,1,10.15,10.15,0,0,0-3,1.85,4.4,4.4,0,0,0-1.49,2.69,1.62,1.62,0,0,0,.35,1.61,2,2,0,0,0,1.56.66,2.4,2.4,0,0,0,1.67-.66,3.12,3.12,0,0,0,.95-1.61.84.84,0,0,1,.06-.36.43.43,0,0,0-.06-.36c1.28,0,1.75,1,1.44,3.11l-9.92,55.66c-.16,1.19-.28,2.35-.36,3.46s-.12,2.15-.12,3.11c0,.76.13,1.43.22,2.12-.21.15-.41.32-.63.45a5.93,5.93,0,0,1-3,.89,9.66,9.66,0,0,1-2.21-.24A3.22,3.22,0,0,1,108.85,97a4.58,4.58,0,0,1-.95-2.21A12.65,12.65,0,0,1,108,91c0-.15.14-1,.43-2.44s.61-3.27,1-5.38.79-4.34,1.19-6.69.78-4.55,1.14-6.63.68-3.8,1-5.19.42-2.17.42-2.33a27.38,27.38,0,0,1,1.08-4.66,14.2,14.2,0,0,1,1.19-2.63,3.91,3.91,0,0,1,1.19-1.43,11.11,11.11,0,0,0-3.76-2,11.78,11.78,0,0,0-9.25.84,10,10,0,0,0-3.83,3.7,10.06,10.06,0,0,0-2.68-3.64A6.61,6.61,0,0,0,92.61,51a19,19,0,0,0-9,2.27,31.22,31.22,0,0,0-8,6.09,40.59,40.59,0,0,0-6.39,9,48.35,48.35,0,0,0-4.18,11,42.38,42.38,0,0,0-1.31,11,25.06,25.06,0,0,0,1.73,9,14,14,0,0,0,3.78,5.18c-.26.31-.45.56-.76.91a32,32,0,0,1-4.9,4.36,25.11,25.11,0,0,1-6.75,3.46,15.42,15.42,0,0,1-8.12.48,15.74,15.74,0,0,1-8.79-4.3,21,21,0,0,1-4.89-8.12,36.57,36.57,0,0,1-1.79-10.75A76.17,76.17,0,0,1,34,78.41a117.92,117.92,0,0,1,2.39-12.55q1.56-6.27,3.47-11.64a66.63,66.63,0,0,1,7.52-15.95,44.35,44.35,0,0,1,8.19-9.43,19,19,0,0,1,7.58-4.13A10.92,10.92,0,0,1,69,24.65a4.16,4.16,0,0,1,2.87,2.75q.6,2-1.31,4.36a9.61,9.61,0,0,1-1.68,1.79A5.26,5.26,0,0,0,67.31,37a5.38,5.38,0,0,0,1,4A4.34,4.34,0,0,0,72,42.63,7.31,7.31,0,0,0,76.51,41a8.74,8.74,0,0,0,3-4.06,17.84,17.84,0,0,0,1-5.5,14.55,14.55,0,0,0-1.13-6.21,11.11,11.11,0,0,0-4.42-5c-2.11-1.36-5.08-2-8.9-1.91a39,39,0,0,0-11.11,2.26,44.79,44.79,0,0,0-13.14,7.35,66.78,66.78,0,0,0-13,13.91A81.69,81.69,0,0,0,18.1,63.89q-4.55,13.74-3.77,24.43t5,18.16A30.91,30.91,0,0,0,30.1,118,30.11,30.11,0,0,0,44,122.54a24.5,24.5,0,0,0,11.17-1.49,33,33,0,0,0,8.3-4.78,31,31,0,0,0,5.67-5.85c1.18-1.63,2-2.87,2.74-3.91a13.92,13.92,0,0,0,6.25,1.34,15.94,15.94,0,0,0,8.43-2.45,21.68,21.68,0,0,0,6.51-6,10.64,10.64,0,0,0,4.29,6.45,12.86,12.86,0,0,0,7.17,2,24.4,24.4,0,0,0,5.14-.66,17.36,17.36,0,0,0,6-2.74,21,21,0,0,0,2.44-2,9.24,9.24,0,0,0,1.8,2.32,12.24,12.24,0,0,0,8.48,3.11,24.31,24.31,0,0,0,5.13-.66,17.4,17.4,0,0,0,6-2.74,25.22,25.22,0,0,0,5.91-6c.42-.58.82-1.22,1.22-1.88.38,3.64,1.53,6.42,3.53,8.21a12.24,12.24,0,0,0,8.48,3.11,24.31,24.31,0,0,0,5.13-.66,17.4,17.4,0,0,0,6-2.74,25.22,25.22,0,0,0,5.91-6A34.4,34.4,0,0,0,180.32,89c0,.46-.08,1-.07,1.41a24.85,24.85,0,0,0,1.73,9,14,14,0,0,0,4.78,6.15,13.1,13.1,0,0,0,7.82,2.27,15.43,15.43,0,0,0,6.63-1.49,19.72,19.72,0,0,0,5.56-3.89c-.17,1.12-.31,2.08-.42,2.87s-.26,1.51-.42,2.15l-.36,1.79a25.15,25.15,0,0,0-7.52,2.57,27,27,0,0,0-6.16,4.48,23.78,23.78,0,0,0-4.42,5.91,22.55,22.55,0,0,0-2.32,6.75,8.73,8.73,0,0,0,.59,4.78,10.42,10.42,0,0,0,2.75,3.7,13.71,13.71,0,0,0,4.24,2.45,14.25,14.25,0,0,0,5,.9,20.5,20.5,0,0,0,5.37-.78,24.87,24.87,0,0,0,5.62-2.33,20.85,20.85,0,0,0,5-4,18.14,18.14,0,0,0,3.59-5.91,29.2,29.2,0,0,0,1-3.17c.28-1.07.58-2.25.9-3.52l1.55-8.6a14.5,14.5,0,0,0,5.55-1.32,20.23,20.23,0,0,0,4.66-3,23.22,23.22,0,0,0,2.42-2.44,6.68,6.68,0,0,0,2.72,1.72,10.41,10.41,0,0,0,5.67.12,16.81,16.81,0,0,0,5.62-2.39,2.39,2.39,0,0,1-.72-1.43,11.3,11.3,0,0,1-.24-2.63,25.37,25.37,0,0,1,.6-4.66c.4-2.39.75-4.5,1.07-6.33s.7-3.9,1.14-6.21.85-4.6,1.25-6.87l1.14-6.45c.35-2,.66-3.72.89-5.08a7.68,7.68,0,0,1,2.69-4.65,10.48,10.48,0,0,1,4.18-2.16,6.08,6.08,0,0,1,3.47.06c.91.37,1.09,1,.53,1.86a14.36,14.36,0,0,0-2,5.79,10.8,10.8,0,0,0,.9,6.09A10.47,10.47,0,0,0,267,77.21c2.22,1.23,5.37,1.73,9.43,1.49a14.34,14.34,0,0,0,1.89-.34L265,119.15a2.61,2.61,0,0,0,4,2.91l27.22-19.78a2.63,2.63,0,0,1,3.07,0l27.23,19.78a2.61,2.61,0,0,0,4-2.91l-10.4-32a2.6,2.6,0,0,1,.95-2.92ZM96.91,65.56c-.24,1.44-.54,3.13-.9,5.08s-.71,3.94-1.07,6l-1,5.74c-.32,1.79-.56,3.2-.71,4.24a31.17,31.17,0,0,1-.9,3.4,21.48,21.48,0,0,1-1.73,4,11.32,11.32,0,0,1-2.69,3.23,5.82,5.82,0,0,1-3.76,1.31A4,4,0,0,1,80.78,97a8.56,8.56,0,0,1-1.55-4.12,23.55,23.55,0,0,1,.06-6,53.11,53.11,0,0,1,1.49-7.41,62.25,62.25,0,0,1,2.57-7.53,51.41,51.41,0,0,1,3.17-6.39,15.88,15.88,0,0,1,3.7-4.41,6.62,6.62,0,0,1,4.18-1.62A2.41,2.41,0,0,1,97,61,9.39,9.39,0,0,1,96.91,65.56ZM203.06,124c-.55,3-1.61,5.2-3.16,6.51s-3.05,1.77-4.48,1.38a3.34,3.34,0,0,1-2.57-3.23A11,11,0,0,1,194,123.2a16.92,16.92,0,0,1,4.19-5.44,12.42,12.42,0,0,1,6.38-3.1Zm10.4-59.36-4,22.69a27.63,27.63,0,0,1-1.07,3.47,21.2,21.2,0,0,1-1.79,3.64A11.05,11.05,0,0,1,204,97.34a5.59,5.59,0,0,1-3.47,1.19A4,4,0,0,1,197.21,97a8.46,8.46,0,0,1-1.55-4.12,23.55,23.55,0,0,1,.06-6,51.69,51.69,0,0,1,1.49-7.41,60.57,60.57,0,0,1,2.57-7.53,51.43,51.43,0,0,1,3.16-6.39,16.07,16.07,0,0,1,3.71-4.41,6.62,6.62,0,0,1,4.18-1.62,2.24,2.24,0,0,1,2.32,1.26A8.55,8.55,0,0,1,213.46,64.61Z"/><path class="cls-2" d="M198,152.71a26.14,26.14,0,0,1-8.92-1.59,25.1,25.1,0,0,1-7.84-4.57,22,22,0,0,1-5.74-7.73A20.13,20.13,0,0,1,174,127.76a34.46,34.46,0,0,1,3.56-10.56,31.54,31.54,0,0,1,1.61-2.76c-.4-.33-.8-.67-1.18-1-.41.32-.82.62-1.24.9a28.82,28.82,0,0,1-10.09,4.51,35.4,35.4,0,0,1-7.61.92,24,24,0,0,1-14.16-4.42,28.2,28.2,0,0,1-8.54,3.5,35.4,35.4,0,0,1-7.61.92,24.45,24.45,0,0,1-11.19-2.61,26.65,26.65,0,0,1-5.09,1.69,35.25,35.25,0,0,1-7.61.92,24.32,24.32,0,0,1-12.94-3.56,27.27,27.27,0,0,1-13.46,3.56c-.45,0-.9,0-1.34,0a43.54,43.54,0,0,1-17.26,12.37,34.45,34.45,0,0,1-13.13,2.45c-1.06,0-2.15,0-3.27-.13a41.53,41.53,0,0,1-19.08-6.21A42.33,42.33,0,0,1,9.54,112.46a54.84,54.84,0,0,1-6.4-23C2.52,80.9,4,71.18,7.46,60.61A93.47,93.47,0,0,1,19.74,35.39,78.91,78.91,0,0,1,35,19.1,56.33,56.33,0,0,1,51.57,9.92,49.8,49.8,0,0,1,66,7.06H67c5.76,0,10.64,1.26,14.51,3.75a22.47,22.47,0,0,1,8.83,10.25,26.06,26.06,0,0,1,2,11.12,30.66,30.66,0,0,1-1.19,7.67c.6,0,1.2-.06,1.81-.06a19,19,0,0,1,8,1.68,23.38,23.38,0,0,1,6.85-1.59c.59,0,1.19-.06,1.79-.06a23.94,23.94,0,0,1,3.39.24l-.09-.09a13.26,13.26,0,0,1-3.17-11.62,16,16,0,0,1,5.08-9,21.85,21.85,0,0,1,6.33-4,27.23,27.23,0,0,1,6.49-1.77,38.31,38.31,0,0,1,5.51-.43,29.3,29.3,0,0,1,6.16.69,18.13,18.13,0,0,1,14,13.67,26.24,26.24,0,0,1,.06,11.21l-.7,3.89a21.86,21.86,0,0,1,4.7-2,22.83,22.83,0,0,1,6.32-.91,22.36,22.36,0,0,1,5.45.68,23.68,23.68,0,0,1,9.44,4.68l6.72,5.55a42.17,42.17,0,0,1,9.8-7.21,30.49,30.49,0,0,1,14.35-3.61,18.46,18.46,0,0,1,7.89,1.72,23.41,23.41,0,0,1,7-1.62c.58-.05,1.18-.07,1.79-.07a23.36,23.36,0,0,1,7.17,1.13l1.07.38a27.41,27.41,0,0,1,4.63-1.11,38,38,0,0,1,5.49-.43,30.58,30.58,0,0,1,4.74.38A22,22,0,0,1,255,42l.64.32a29.19,29.19,0,0,1,11.76-2.53,30.53,30.53,0,0,1,11.12,1.79l6.14-18.9a14.17,14.17,0,0,1,26.94,0L320,48.5h27.16a14.16,14.16,0,0,1,8.33,25.62l-22,16,8.4,25.83a14.17,14.17,0,0,1-13.49,18.55h0a14.11,14.11,0,0,1-8.31-2.71l-22-16-22,16a14.08,14.08,0,0,1-8.32,2.72,14.17,14.17,0,0,1-13.48-18.56l.38-1.17-.64.43a28.38,28.38,0,0,1-9.43,4,24.1,24.1,0,0,1-5.35.63,21.13,21.13,0,0,1-3.48-.29A31.54,31.54,0,0,1,231.5,122l-.37.17-.31,1.71-1,4a43.51,43.51,0,0,1-1.42,4.41,29.6,29.6,0,0,1-5.89,9.62,32.34,32.34,0,0,1-7.8,6.2,36.08,36.08,0,0,1-8.28,3.43A32.33,32.33,0,0,1,198,152.71Z"/><path class="cls-1" d="M114.52,19.79a21.88,21.88,0,0,1,6.32-4,27.7,27.7,0,0,1,6.49-1.77,38.36,38.36,0,0,1,5.51-.42,29.27,29.27,0,0,1,6.16.68A18.17,18.17,0,0,1,153,28c.14.57.26,1.16.35,1.75a24.38,24.38,0,0,0-.35-9.29A18.13,18.13,0,0,0,139,6.78a29.3,29.3,0,0,0-6.16-.69,38.42,38.42,0,0,0-5.51.43,27.23,27.23,0,0,0-6.49,1.77,21.46,21.46,0,0,0-6.32,4,16,16,0,0,0-5.09,9,13.46,13.46,0,0,0,.26,6.41A16.07,16.07,0,0,1,114.52,19.79Z"/><path class="cls-1" d="M153.05,39.2l-.7,3.9a20.9,20.9,0,0,1,4.7-2,22.45,22.45,0,0,1,11.77-.24,23.69,23.69,0,0,1,9.44,4.69L185,51.09a42.41,42.41,0,0,1,9.8-7.2,30.4,30.4,0,0,1,14.35-3.61A18.32,18.32,0,0,1,217,42a23.43,23.43,0,0,1,7-1.63c.58,0,1.18-.07,1.79-.07a23.07,23.07,0,0,1,7.17,1.14l1.07.37a28.41,28.41,0,0,1,4.63-1.11,38,38,0,0,1,5.49-.42,30.58,30.58,0,0,1,4.74.38,21.6,21.6,0,0,1,5.92,1.82l.64.32a29.35,29.35,0,0,1,11.76-2.52,30.54,30.54,0,0,1,11.12,1.78l6.14-18.89a14.16,14.16,0,0,1,26.94,0L319.78,49h27.16a14.13,14.13,0,0,1,13.47,9.78c.07.21.12.41.18.62a14.17,14.17,0,0,0-13.65-17.95H319.78l-8.39-25.83a14.17,14.17,0,0,0-26.94,0l-6.14,18.89a30.76,30.76,0,0,0-11.12-1.78,29.19,29.19,0,0,0-11.76,2.53l-.64-.32a22,22,0,0,0-5.92-1.83,30.58,30.58,0,0,0-4.74-.38,38,38,0,0,0-5.49.43A27.41,27.41,0,0,0,234,34.27l-1.07-.38a23.36,23.36,0,0,0-7.17-1.13c-.61,0-1.21,0-1.79.07a23.41,23.41,0,0,0-7,1.62,18.46,18.46,0,0,0-7.89-1.72,30.52,30.52,0,0,0-14.35,3.61,42.17,42.17,0,0,0-9.8,7.21L178.26,38a23.83,23.83,0,0,0-9.44-4.69,22.45,22.45,0,0,0-11.77.24,21.64,21.64,0,0,0-3.48,1.36A36.49,36.49,0,0,1,153.05,39.2Z"/><path class="cls-1" d="M7.23,61.1c3.3-10,7.43-18.47,12.28-25.21a78.72,78.72,0,0,1,15.25-16.3,56.55,56.55,0,0,1,16.58-9.18A50.13,50.13,0,0,1,65.81,7.55h.91c5.76,0,10.64,1.26,14.51,3.75a22.47,22.47,0,0,1,8.83,10.25,25.93,25.93,0,0,1,1.79,6.51c.12-.95.21-1.92.24-2.93a26.06,26.06,0,0,0-2-11.12A22.47,22.47,0,0,0,81.23,3.75C77.36,1.26,72.48,0,66.72,0h-.91A49.8,49.8,0,0,0,51.34,2.87a56.1,56.1,0,0,0-16.58,9.18A78.91,78.91,0,0,0,19.51,28.34,93.47,93.47,0,0,0,7.23,53.56C3.77,64,2.32,73.66,2.9,82.2A84.36,84.36,0,0,1,7.23,61.1Z"/><path class="cls-1" d="M90.9,40.33c.6,0,1.2,0,1.81,0a18.88,18.88,0,0,1,8,1.68,22.76,22.76,0,0,1,6.85-1.59c.59,0,1.19-.07,1.79-.07a22.78,22.78,0,0,1,3.4.25l-.1-.1a13.17,13.17,0,0,1-3.38-7.69q-.87,0-1.71.06a23.07,23.07,0,0,0-6.85,1.59,19,19,0,0,0-8-1.68l-.62,0A30.93,30.93,0,0,1,90.9,40.33Z"/><text class="cls-3" transform="translate(428.67 65.27)">Write<tspan x="0" y="44.78">Universes.</tspan></text><line class="cls-4" x1="390.04" y1="41.96" x2="390.04" y2="106.94"/></g></g></svg>